<?xml version="1.0" standalone="no"?>
<!DOCTYPE svg PUBLIC "-//W3C//DTD SVG 20010904//EN"
 "http://www.w3.org/TR/2001/REC-SVG-20010904/DTD/svg10.dtd">
<svg version="1.0" xmlns="http://www.w3.org/2000/svg"
 width="938.000000pt" height="563.000000pt" viewBox="0 0 938.000000 563.000000"
 preserveAspectRatio="xMidYMid meet">

<g transform="translate(0.000000,563.000000) scale(0.100000,-0.100000)"
fill="#000000" stroke="none">
<path d="M4727 5548 c-49 -100 -53 -131 -24 -193 l24 -50 7 65 c4 36 13 90 21
120 14 54 14 54 9 -62 -3 -65 -3 -118 -1 -118 2 0 16 17 31 38 20 29 26 50 26
89 0 52 -35 183 -49 183 -4 0 -24 -33 -44 -72z"/>
<path d="M4912 5475 c-36 -60 -62 -127 -62 -159 0 -11 10 -41 22 -66 l21 -45
17 95 c26 143 29 145 27 17 l-2 -119 28 34 c44 53 50 92 27 181 -16 66 -35
117 -43 117 -1 0 -17 -25 -35 -55z"/>
<path d="M4127 5439 c-13 -48 -7 -199 9 -237 18 -43 58 -88 97 -108 l28 -15
-15 29 c-17 33 -78 233 -73 239 5 4 107 -213 107 -227 0 -5 4 -10 9 -10 23 0
28 113 7 165 -8 18 -48 69 -89 111 -70 73 -74 76 -80 53z"/>
<path d="M4339 5433 c-7 -15 -14 -52 -17 -80 -5 -58 4 -75 48 -98 l27 -14 -14
61 c-21 89 -11 103 17 26 14 -38 28 -68 31 -68 9 0 29 49 29 73 0 29 -21 58
-70 97 l-40 32 -11 -29z"/>
<path d="M5137 5382 c-54 -115 -64 -167 -43 -230 27 -79 42 -84 50 -15 3 32
12 94 19 138 l12 80 5 -140 5 -140 29 43 c43 63 45 116 7 234 -18 54 -35 100
-40 102 -4 3 -24 -29 -44 -72z"/>
<path d="M4545 5355 c-55 -119 -78 -209 -72 -270 5 -52 42 -130 72 -155 13
-11 15 -5 15 41 0 30 5 115 12 189 15 163 23 140 34 -89 l7 -155 20 25 c11 13
31 48 45 78 20 44 24 64 19 115 -7 84 -84 296 -108 296 -6 0 -25 -34 -44 -75z"/>
<path d="M3987 5326 c-4 -10 -7 -46 -7 -80 0 -54 4 -67 26 -91 14 -15 27 -26
29 -24 2 2 -3 33 -11 68 -8 35 -13 65 -11 67 2 2 15 -27 28 -66 17 -51 26 -65
31 -53 19 50 5 96 -54 167 -22 25 -25 27 -31 12z"/>
<path d="M5436 5298 c-4 -13 -9 -68 -13 -123 -5 -94 -4 -103 20 -150 37 -74
93 -117 68 -54 -11 30 -44 220 -39 225 4 4 48 -129 69 -206 l12 -45 13 35 c29
80 9 154 -76 280 -22 33 -42 60 -44 60 -2 0 -7 -10 -10 -22z"/>
<path d="M3891 5262 c-19 -25 -49 -74 -68 -110 -36 -69 -42 -128 -19 -192 l13
-35 7 30 c15 64 69 235 73 231 4 -4 -32 -219 -43 -252 -3 -11 13 1 35 25 22
24 45 60 51 80 13 47 12 131 -3 207 l-12 62 -34 -46z"/>
<path d="M5318 5272 c-44 -49 -54 -81 -37 -114 12 -22 13 -20 32 35 23 70 34
68 17 -3 -7 -28 -10 -53 -8 -55 2 -3 14 4 26 15 17 16 22 32 21 68 -1 26 -4
58 -8 71 -6 23 -7 23 -43 -17z"/>
<path d="M3646 5268 c-3 -13 -6 -46 -6 -75 0 -41 5 -58 26 -83 15 -17 28 -29
30 -27 3 2 -3 32 -12 66 -8 35 -14 65 -11 67 2 3 15 -25 28 -61 24 -68 39 -70
39 -6 0 25 -11 49 -40 88 -23 29 -42 53 -44 53 -2 0 -6 -10 -10 -22z"/>
<path d="M5693 5253 c-41 -52 -53 -77 -53 -110 0 -61 17 -56 40 11 12 37 24
65 26 63 4 -4 -10 -79 -22 -120 -5 -16 -3 -17 14 -6 30 19 42 53 42 117 0 82
-11 92 -47 45z"/>
<path d="M4806 5250 c-41 -103 -45 -147 -16 -181 l19 -24 2 75 c1 79 16 66 18
-17 1 -23 5 -44 10 -47 10 -7 31 38 31 67 0 33 -56 145 -64 127z"/>
<path d="M4977 5164 c-26 -51 -57 -165 -57 -211 0 -24 6 -56 14 -71 17 -32 92
-104 83 -81 -10 28 -18 286 -9 264 5 -11 19 -73 32 -137 13 -65 27 -115 32
-112 19 12 51 91 51 126 0 43 -36 119 -92 197 l-39 53 -15 -28z"/>
<path d="M4333 5068 c-58 -116 -68 -166 -48 -234 13 -46 35 -81 35 -57 0 21
41 258 46 262 6 6 -4 -218 -12 -259 -4 -23 -2 -23 26 10 30 35 50 85 50 128 0
32 -29 170 -44 205 l-11 30 -42 -85z"/>
<path d="M5797 5073 c-33 -74 -40 -112 -24 -141 14 -27 80 -72 73 -51 -2 8 -7
50 -11 94 -8 98 5 91 32 -19 l20 -78 22 28 c34 44 36 69 8 116 -14 24 -41 58
-59 76 l-34 32 -27 -57z"/>
<path d="M3505 5078 c-57 -67 -68 -93 -55 -132 6 -19 19 -41 29 -50 17 -15 18
-13 30 40 7 32 19 73 27 93 13 34 14 32 8 -44 -3 -44 -8 -89 -11 -99 -5 -19
-4 -19 28 1 19 12 41 33 49 46 13 23 12 32 -4 83 -19 61 -43 104 -56 104 -5 0
-25 -19 -45 -42z"/>
<path d="M4050 5043 c-48 -78 -79 -152 -79 -188 -1 -37 29 -104 58 -129 l21
-19 0 44 c0 62 21 212 31 224 5 5 9 -52 9 -130 l0 -139 29 28 c16 15 37 46 47
68 16 35 16 47 6 96 -10 48 -74 202 -84 202 -2 0 -19 -26 -38 -57z"/>
<path d="M5256 5031 c-52 -108 -63 -169 -42 -224 9 -24 30 -56 46 -72 l30 -29
1 145 c0 158 9 160 29 9 18 -145 18 -144 37 -128 22 18 53 87 53 121 0 36 -34
116 -81 192 l-38 59 -35 -73z"/>
<path d="M3673 4964 c-4 -22 -8 -97 -8 -169 0 -115 3 -135 22 -171 21 -40 83
-103 122 -123 20 -11 20 -10 6 24 -15 35 -85 302 -85 320 1 27 111 -233 125
-295 9 -40 21 -38 36 8 21 61 17 150 -10 202 -28 53 -103 149 -159 204 l-41
39 -8 -39z"/>
<path d="M4729 4940 c-87 -122 -108 -190 -86 -272 7 -28 27 -39 27 -15 0 17
72 238 77 234 4 -5 -46 -258 -55 -272 -3 -5 10 4 27 20 59 54 75 98 73 200 -2
50 -6 108 -10 130 l-7 40 -46 -65z"/>
<path d="M5630 4934 c-75 -81 -136 -172 -151 -227 -11 -40 -7 -79 13 -149 11
-37 28 -52 28 -24 0 16 103 277 120 303 9 14 10 10 5 -19 -6 -38 -68 -268 -80
-300 -14 -34 17 -18 74 40 75 74 86 116 78 289 -3 67 -10 130 -15 138 -7 13
-20 4 -72 -51z"/>
<path d="M4437 4758 c-52 -125 -71 -188 -71 -243 0 -54 26 -121 66 -169 l25
-29 6 173 c4 96 11 178 16 183 5 5 12 -35 16 -100 4 -59 11 -139 14 -178 l7
-70 32 50 c58 89 63 151 21 272 -26 76 -80 193 -89 193 -4 0 -23 -37 -43 -82z"/>
<path d="M4858 4763 c-81 -179 -92 -271 -43 -360 15 -29 36 -59 45 -68 16 -14
17 -4 23 161 6 166 10 195 22 182 3 -2 8 -84 11 -181 8 -194 9 -197 61 -110
36 62 44 108 32 178 -11 62 -95 275 -109 275 -4 0 -23 -35 -42 -77z"/>
<path d="M3338 4813 c-69 -82 -83 -126 -56 -184 l21 -44 13 60 c26 118 34 127
29 33 -5 -95 1 -103 40 -50 24 32 24 80 1 150 -19 57 -25 61 -48 35z"/>
<path d="M5996 4779 c-30 -81 -27 -123 12 -161 l32 -33 -5 90 c-6 99 4 92 26
-18 13 -68 13 -68 31 -45 30 40 23 97 -19 158 -21 29 -43 55 -48 57 -6 2 -19
-20 -29 -48z"/>
<path d="M3504 4786 c-4 -10 -7 -59 -8 -110 -1 -78 2 -96 22 -127 12 -21 34
-45 49 -54 25 -17 26 -17 19 1 -15 38 -47 176 -43 187 3 11 67 -154 67 -174 0
-25 20 -5 26 27 13 71 -14 138 -96 233 -26 30 -30 32 -36 17z"/>
<path d="M5824 4747 c-76 -96 -97 -154 -78 -224 8 -31 20 -29 29 5 9 36 67
183 71 179 2 -1 -9 -53 -24 -114 -24 -98 -26 -110 -11 -102 28 14 58 59 69
101 11 39 3 208 -9 208 -3 -1 -25 -24 -47 -53z"/>
<path d="M4204 4683 c-16 -97 -10 -134 25 -165 18 -16 35 -27 38 -24 3 2 -2
36 -11 75 -9 38 -16 76 -16 83 1 17 36 -61 51 -112 7 -22 16 -37 20 -34 16 10
28 75 19 100 -10 26 -97 124 -111 124 -4 0 -11 -21 -15 -47z"/>
<path d="M5113 4688 c-50 -53 -63 -77 -63 -120 1 -39 29 -98 30 -63 1 28 59
165 59 141 1 -10 -6 -45 -15 -78 -8 -33 -14 -64 -12 -70 6 -18 66 41 73 71 7
31 -13 161 -24 161 -4 0 -25 -19 -48 -42z"/>
<path d="M4047 4602 c-7 -64 2 -103 30 -134 27 -30 32 -20 17 35 -20 77 -16
90 9 25 29 -73 34 -78 42 -36 8 43 -4 73 -52 127 l-40 45 -6 -62z"/>
<path d="M5286 4619 c-44 -52 -58 -88 -51 -126 8 -43 13 -38 42 35 24 64 31
41 9 -31 -8 -26 -11 -47 -7 -47 13 0 39 33 50 63 12 30 4 137 -9 137 -5 0 -20
-14 -34 -31z"/>
<path d="M3926 4508 c-11 -100 -7 -191 13 -233 20 -43 90 -117 77 -80 -13 34
-47 218 -43 229 2 6 19 -36 37 -94 17 -58 34 -112 37 -120 7 -24 23 12 30 69
4 39 1 60 -20 105 -28 60 -105 176 -117 176 -4 0 -10 -24 -14 -52z"/>
<path d="M5391 4501 c-53 -76 -91 -158 -91 -196 0 -42 20 -109 29 -99 4 5 13
29 20 54 16 60 63 192 67 188 1 -2 -10 -63 -25 -136 l-27 -132 32 31 c50 49
64 86 64 177 0 91 -9 172 -20 172 -4 0 -26 -27 -49 -59z"/>
<path d="M3190 4506 c0 -10 76 -134 111 -181 78 -106 129 -135 235 -135 l67 0
-44 32 c-59 42 -249 198 -249 204 0 9 199 -110 273 -162 55 -39 59 -31 23 49
-42 97 -121 144 -304 182 -74 15 -112 19 -112 11z"/>
<path d="M6070 4494 c-201 -44 -284 -106 -316 -237 l-7 -29 49 35 c75 53 274
172 274 163 0 -6 -190 -162 -249 -204 l-44 -32 69 0 c90 1 137 22 200 93 43
49 144 203 144 221 0 9 -49 5 -120 -10z"/>
<path d="M3701 4443 c-6 -31 -11 -67 -11 -80 0 -35 24 -76 57 -95 l29 -17 -18
72 c-27 104 -17 115 17 20 28 -76 31 -80 42 -60 25 44 16 92 -27 146 -22 27
-48 55 -59 60 -16 9 -20 5 -30 -46z"/>
<path d="M5647 4489 c-10 -6 -35 -33 -57 -61 -43 -54 -52 -101 -26 -146 12
-23 13 -23 24 17 7 22 21 59 32 83 23 51 25 28 5 -57 -8 -32 -12 -61 -10 -63
2 -2 14 4 28 13 37 24 51 65 42 132 -10 80 -16 94 -38 82z"/>
<path d="M4636 4438 c-3 -13 -9 -52 -12 -88 -5 -57 -4 -68 16 -93 12 -15 31
-32 42 -38 19 -10 20 -9 15 12 -41 164 -38 190 9 63 26 -72 28 -75 40 -52 30
54 13 107 -59 176 -43 42 -44 43 -51 20z"/>
<path d="M4191 4389 c-31 -95 -42 -171 -29 -216 10 -36 83 -122 94 -110 3 3 1
31 -5 63 -5 33 -12 95 -15 139 l-6 80 20 -60 c11 -33 29 -96 39 -140 l18 -80
21 35 c27 43 36 89 28 134 -7 35 -62 126 -113 186 l-30 34 -22 -65z"/>
<path d="M5118 4392 c-64 -80 -98 -148 -98 -192 0 -20 12 -61 27 -91 l28 -54
11 60 c12 66 53 217 61 225 7 7 -7 -163 -18 -224 -5 -27 -7 -51 -5 -53 11 -11
77 63 92 103 16 43 16 50 0 125 -9 44 -25 98 -34 120 l-18 41 -46 -60z"/>
<path d="M3237 4128 c-32 -17 -54 -34 -50 -38 13 -11 88 -30 119 -30 25 0 94
32 94 44 0 2 -33 2 -72 0 l-73 -3 69 17 c68 17 69 17 42 30 -41 18 -65 15
-129 -20z"/>
<path d="M6011 4147 c-22 -13 -20 -15 50 -30 l74 -16 -72 2 c-40 2 -73 0 -73
-3 0 -3 14 -14 31 -24 34 -20 96 -18 154 4 l29 11 -46 30 c-54 36 -112 46
-147 26z"/>
<path d="M3400 4042 c0 -4 33 -40 73 -79 77 -77 140 -112 199 -113 79 0 72 11
-44 72 -62 33 -117 64 -123 70 -12 11 103 -32 190 -71 l65 -30 -14 27 c-36 69
-104 107 -206 117 -36 3 -82 8 -102 10 -21 3 -38 2 -38 -3z"/>
<path d="M5870 4039 c-131 -13 -182 -39 -234 -121 l-17 -26 88 37 c210 90 226
87 44 -7 -116 -61 -123 -72 -43 -72 59 1 122 36 200 113 71 71 84 88 60 86 -7
-1 -51 -5 -98 -10z"/>
<path d="M3341 3784 c-60 -50 -60 -148 -1 -197 59 -50 137 -43 187 17 26 31
34 34 99 38 38 3 83 11 99 19 41 20 102 113 63 96 -60 -27 -191 -77 -194 -75
-2 2 40 28 93 58 96 55 97 55 66 64 -51 14 -100 -1 -150 -47 -35 -32 -47 -38
-51 -27 -3 8 -20 30 -38 48 -28 28 -38 32 -87 32 -45 0 -61 -5 -86 -26z m49
-3 c0 -25 -14 -41 -36 -41 -30 0 -31 14 -2 34 25 18 38 20 38 7z m121 -20 c24
-25 39 -61 25 -61 -8 0 -92 39 -99 46 -8 8 21 44 35 44 5 0 23 -13 39 -29z
m-66 -130 l22 -61 -34 0 c-19 0 -47 7 -63 15 -38 20 -39 53 -4 94 34 41 51 31
79 -48z"/>
<path d="M5615 3801 c-17 -7 -13 -12 32 -34 73 -38 154 -91 123 -82 -20 7
-119 46 -177 72 -21 9 -15 -11 16 -54 34 -48 81 -63 191 -63 65 0 70 1 61 18
-18 34 -103 123 -132 137 -30 16 -82 18 -114 6z"/>
<path d="M3873 3730 c-51 -22 -74 -57 -109 -162 -16 -50 -32 -79 -43 -83 -20
-6 -41 -45 -41 -76 0 -30 53 -79 85 -79 16 0 38 12 57 30 30 30 34 56 14 100
-5 11 6 20 42 32 104 37 152 92 152 176 l0 42 -82 -71 c-46 -39 -96 -81 -113
-92 -26 -19 -24 -14 17 38 26 33 70 84 97 113 l51 52 -43 0 c-23 0 -61 -9 -84
-20z"/>
<path d="M5429 3701 c26 -26 69 -77 96 -112 59 -75 42 -66 -94 51 l-84 73 5
-57 c3 -34 13 -68 24 -84 25 -34 131 -87 213 -106 62 -14 62 -14 56 7 -23 84
-49 158 -68 192 -27 48 -93 85 -152 85 l-41 0 45 -49z"/>
<path d="M4056 3567 c-23 -24 -49 -57 -59 -74 l-17 -31 72 -7 c105 -10 128 2
158 79 10 26 9 26 -18 12 -15 -8 -55 -24 -87 -35 -58 -20 -59 -20 -35 -1 14
11 49 32 78 47 l52 28 -27 12 c-50 22 -74 16 -117 -30z"/>
<path d="M5207 3597 l-27 -12 52 -28 c29 -15 64 -36 78 -47 23 -19 19 -18 -42
4 -37 14 -76 30 -88 36 -20 11 -21 11 -5 -26 8 -21 20 -43 26 -50 16 -20 65
-27 135 -19 l64 7 -17 31 c-10 17 -36 50 -59 74 -43 46 -67 52 -117 30z"/>
<path d="M3576 3504 c-11 -28 -6 -114 8 -147 12 -30 61 -80 85 -89 7 -2 4 -20
-6 -48 -8 -25 -18 -89 -21 -143 -4 -91 -3 -99 14 -103 14 -4 27 -26 42 -72 13
-37 24 -75 26 -84 3 -23 36 -58 53 -58 8 0 12 -4 9 -8 -3 -5 26 -39 64 -77
l69 -68 58 50 c32 28 67 60 77 72 17 18 30 21 108 21 l88 0 0 -209 0 -208 48
-21 47 -21 3 230 2 229 150 0 150 0 0 -55 c0 -44 -3 -55 -16 -55 -9 0 15 -16
53 -36 37 -20 80 -45 95 -55 14 -11 30 -19 34 -19 5 0 -8 11 -28 25 -35 23
-36 26 -40 97 -3 40 -3 79 0 86 3 9 44 12 158 12 l154 0 0 -136 0 -137 -69 7
c-66 7 -69 6 -75 -16 -3 -13 -6 -26 -6 -29 0 -4 29 -23 65 -44 41 -24 69 -49
77 -67 8 -16 21 -28 31 -28 38 0 8 -26 -67 -58 l-77 -33 -19 23 c-18 23 -50
118 -50 151 0 13 -9 17 -34 17 l-33 0 -18 -90 c-9 -50 -14 -102 -11 -115 5
-21 2 -25 -31 -32 -60 -13 -351 -9 -418 5 -231 50 -404 144 -620 340 l-89 79
-71 -61 c-179 -157 -356 -244 -569 -281 -94 -16 -106 -14 -106 15 0 10 -4 21
-8 24 -5 3 -17 35 -27 71 -9 36 -21 65 -25 65 -10 0 -374 -111 -378 -115 -2
-2 11 -52 29 -110 44 -142 73 -174 158 -166 39 4 81 30 91 57 9 22 15 25 38
19 16 -3 41 -1 57 5 22 8 31 7 45 -5 9 -8 35 -16 58 -17 l42 -1 55 -104 c273
-516 714 -842 1315 -974 148 -32 480 -38 660 -11 607 92 1138 467 1397 989 58
116 87 126 35 13 -21 -48 -32 -84 -26 -89 12 -11 355 -163 359 -159 1 2 22 46
45 98 64 142 56 206 -30 245 -33 15 -47 16 -75 8 -33 -10 -38 -9 -67 20 -23
23 -31 40 -29 59 3 37 -24 85 -60 104 -22 11 -29 20 -24 32 23 57 46 223 50
352 l4 145 -9 -120 c-17 -218 -52 -395 -78 -395 -13 0 -14 15 -9 98 4 53 7
163 7 245 l0 147 24 0 c26 0 36 21 36 81 0 25 7 43 25 59 14 13 25 30 25 38 0
12 3 12 16 1 9 -7 20 -22 24 -34 8 -17 9 -16 9 11 1 17 -10 44 -24 64 -21 29
-25 45 -25 105 0 119 -30 175 -94 175 -17 0 -110 16 -206 36 -96 19 -200 35
-230 35 -52 -1 -53 0 -32 15 40 28 23 63 -21 43 -21 -9 -30 -8 -53 10 -39 28
-81 17 -105 -28 -10 -19 -30 -46 -44 -61 -41 -43 -31 -61 45 -79 36 -8 68 -19
71 -24 4 -5 10 -31 13 -58 5 -33 13 -53 28 -63 22 -15 68 -90 68 -110 0 -6
-39 -30 -87 -53 -122 -59 -199 -120 -413 -328 -166 -161 -278 -256 -364 -311
l-29 -18 12 21 c6 12 16 25 21 28 6 4 10 84 10 206 l0 199 67 0 c55 0 71 -4
92 -22 14 -12 -8 12 -49 55 -74 76 -74 77 -44 77 65 0 86 75 37 130 -57 63
-153 47 -153 -25 l0 -35 -70 46 c-157 102 -289 138 -500 138 -213 0 -362 -42
-510 -143 -50 -34 -60 -38 -70 -26 -7 8 -28 15 -47 15 -23 0 -42 8 -61 27
l-26 27 27 9 c31 10 32 12 13 80 -8 29 -17 72 -20 97 l-6 45 45 19 c54 22 88
65 89 115 1 29 -3 36 -18 36 -14 0 -22 -10 -28 -31 -16 -63 -86 -99 -159 -81
-24 5 -61 14 -82 19 -51 12 -72 47 -74 123 -1 33 -2 63 -2 68 -2 14 -39 7 -45
-9z m2992 -373 c-3 -45 -4 -48 -21 -37 -15 12 -16 19 -6 66 9 42 13 50 21 37
5 -10 8 -39 6 -66z m-407 -96 c0 -5 -9 -11 -21 -13 -15 -3 -18 1 -14 13 7 17
35 17 35 0z m-2363 -75 c27 -36 62 -60 100 -69 l27 -6 -51 -48 -51 -47 -32 62
c-55 110 -50 186 7 108z m852 -70 l0 -80 -150 0 -150 0 0 54 0 53 73 21 c79
23 109 28 180 31 l47 1 0 -80z m215 70 c33 -5 90 -19 128 -31 l67 -22 0 -48 0
-49 -155 0 -155 0 0 80 0 80 28 0 c15 0 54 -4 87 -10z m1635 -79 c0 -11 -5
-32 -11 -48 -14 -35 -23 -15 -15 33 7 36 26 47 26 15z m-142 -283 l-3 -293 43
-3 c23 -2 42 -7 42 -11 0 -4 -14 -20 -31 -37 -30 -29 -32 -29 -134 -27 -119 3
-247 28 -361 72 -75 29 -202 99 -252 139 l-24 18 120 116 c66 63 156 139 199
168 l78 52 3 -197 2 -196 53 -24 52 -23 6 27 c4 14 7 126 8 248 l1 222 38 10
c69 19 117 29 140 30 l24 1 -4 -292z m-2108 242 c0 -29 -1 -30 -47 -30 l-48 0
45 30 c25 16 46 30 48 30 1 0 2 -13 2 -30z m956 -28 c-27 -5 -46 6 -40 22 5
13 9 13 32 -2 22 -14 23 -17 8 -20z m-1342 -461 c211 -193 413 -298 644 -331
112 -17 364 -8 462 15 167 40 325 121 473 242 l79 65 24 -23 c18 -17 24 -33
24 -64 0 -28 7 -52 21 -69 17 -21 19 -29 9 -41 -7 -8 -23 -15 -35 -15 -32 0
-42 -17 -47 -81 -3 -36 -12 -67 -26 -87 -34 -46 -12 -80 31 -48 15 11 24 11
60 -1 23 -8 43 -16 45 -18 10 -10 -32 -53 -63 -64 -38 -13 -58 -40 -49 -64 4
-11 -2 -16 -18 -19 -17 -2 -23 -9 -23 -28 0 -14 -7 -31 -16 -37 -9 -7 -19 -23
-23 -37 -3 -13 -13 -27 -22 -30 -13 -5 -15 -2 -9 11 19 45 18 64 -4 70 -11 3
-21 9 -21 14 0 17 -38 9 -44 -8 -3 -10 -11 -26 -18 -35 -17 -24 -1 -50 39 -63
l31 -10 -24 -28 c-21 -25 -33 -67 -18 -67 12 0 51 24 82 51 18 16 39 29 48 29
21 0 104 79 104 99 -1 21 -20 45 -44 54 -10 4 -16 10 -13 13 9 10 67 -26 67
-41 0 -8 4 -15 9 -15 4 0 11 -19 14 -41 7 -51 14 -58 63 -65 21 -3 55 -13 74
-21 l34 -16 -39 -33 c-21 -19 -44 -34 -50 -34 -6 0 -18 -15 -26 -32 -11 -27
-20 -34 -49 -36 -19 -2 -41 -10 -47 -19 -14 -18 -17 -14 -7 11 3 9 16 16 29
16 26 0 95 82 95 112 0 43 -82 41 -103 -2 -10 -20 -19 -24 -45 -22 -42 4 -71
-13 -84 -49 -5 -16 -14 -29 -19 -29 -5 0 -9 -9 -9 -20 0 -11 5 -20 11 -20 5 0
8 4 4 9 -3 5 -1 12 5 16 6 3 16 21 24 39 15 37 49 52 67 30 9 -12 18 -7 50 26
40 41 54 46 78 31 15 -10 10 -22 -32 -70 -15 -18 -39 -36 -54 -40 -22 -6 -30
-17 -40 -51 -7 -24 -10 -46 -7 -49 6 -6 40 31 46 51 3 7 18 11 35 10 24 -2 37
5 56 28 14 16 30 30 36 30 6 0 11 6 11 14 0 7 16 24 35 37 19 13 35 31 35 40
0 25 -55 59 -98 59 -47 0 -62 14 -62 57 0 17 -6 36 -13 40 -8 4 -16 16 -20 26
-4 10 -21 23 -37 29 -46 15 -38 49 16 66 26 8 46 23 58 43 22 37 13 50 -50 68
-37 11 -51 12 -66 2 -30 -18 -33 -6 -9 32 13 21 21 51 21 76 0 55 15 81 45 81
13 0 27 5 30 11 5 7 14 3 26 -10 13 -14 32 -21 54 -21 33 0 35 -2 35 -32 0
-18 8 -47 18 -63 11 -17 22 -47 26 -68 4 -20 13 -37 20 -37 7 0 21 -9 31 -20
10 -11 28 -20 41 -20 26 0 152 55 176 77 24 21 23 49 -1 56 -14 3 -18 11 -14
26 7 29 22 36 29 14 3 -10 10 -28 16 -40 11 -22 4 -69 -14 -90 -6 -7 -23 -13
-39 -13 -34 0 -78 -16 -101 -37 -23 -20 -7 -56 20 -45 34 14 118 66 151 95 35
30 47 27 53 -13 5 -37 44 -40 60 -5 6 14 27 32 44 40 37 15 64 66 64 121 0 33
-2 34 -37 34 -37 0 -72 14 -62 24 2 3 22 1 44 -4 22 -4 66 -11 98 -15 31 -3
57 -10 57 -14 0 -16 -94 -187 -140 -257 -104 -153 -201 -261 -345 -382 -137
-115 -301 -218 -436 -275 -34 -14 -36 -14 -32 2 2 10 20 23 38 30 19 6 56 32
82 56 45 42 47 44 22 45 -15 0 -36 -12 -54 -30 -31 -32 -69 -39 -79 -15 -3 9
-18 15 -36 15 -36 0 -36 3 -9 47 12 19 19 36 16 39 -8 8 -45 -49 -53 -80 -7
-28 -6 -29 29 -22 30 6 38 3 46 -13 6 -11 11 -22 11 -24 0 -18 -269 -109 -409
-138 -129 -26 -151 -26 -151 6 0 17 -9 29 -27 39 -16 8 -41 28 -57 44 l-28 30
38 -5 c45 -6 94 25 94 58 0 10 5 19 10 19 6 0 10 13 10 29 0 34 -58 91 -93 91
-12 0 -32 6 -43 13 -12 6 -38 21 -59 33 -28 15 -42 33 -54 64 -25 67 -45 74
-112 42 -76 -36 -85 -46 -105 -104 -13 -41 -14 -57 -5 -87 6 -20 12 -47 14
-61 2 -22 -3 -26 -38 -30 -34 -4 -41 -9 -45 -33 l-5 -28 -47 31 c-63 42 -66
48 -33 75 18 14 26 27 22 38 -4 11 2 17 24 22 42 9 55 39 29 65 -20 20 -61 40
-81 40 -5 0 -9 -11 -9 -24 0 -14 -4 -28 -10 -31 -6 -4 -10 12 -10 40 0 32 -5
47 -16 52 -23 9 -63 -13 -82 -47 -10 -18 -27 -30 -42 -32 -35 -4 -31 -21 8
-33 23 -6 32 -15 32 -30 0 -12 5 -26 12 -33 6 -6 9 -14 6 -18 -10 -9 -46 18
-52 39 -3 14 -12 18 -38 16 -44 -4 -70 11 -40 22 12 5 22 17 22 27 0 11 13 24
33 33 26 11 34 22 41 57 11 46 17 49 60 27 41 -21 43 -20 49 31 6 57 14 65 71
71 52 6 59 23 26 65 -37 48 -176 92 -219 69 -27 -15 -47 -5 -30 15 10 12 9 18
-3 31 -14 14 -14 17 3 34 18 18 21 18 44 3 23 -15 25 -15 25 0 0 9 5 16 10 16
6 0 10 8 10 18 0 25 -68 62 -113 62 -20 0 -39 5 -42 10 -3 6 -17 10 -31 10
-21 0 -24 -4 -19 -20 11 -35 -29 -23 -86 25 -37 31 -75 52 -131 71 l-78 26 0
38 c0 55 -25 81 -90 91 -68 11 -110 28 -110 44 0 7 24 28 53 47 28 20 84 63
122 96 39 34 73 61 76 61 3 1 50 -39 103 -88z m1802 58 c57 -61 200 -161 306
-214 101 -51 118 -65 76 -65 -10 0 -29 -17 -44 -41 -21 -34 -29 -40 -47 -34
-12 4 -41 10 -64 12 -23 3 -47 11 -54 19 -6 8 -20 14 -31 14 -11 0 -29 11 -40
25 -17 22 -27 25 -84 25 -42 0 -64 4 -64 12 0 6 -7 19 -16 29 -8 9 -17 38 -19
64 -2 34 -10 54 -27 72 l-25 25 46 44 c25 24 49 44 52 44 3 0 18 -14 35 -31z
m-606 -6 c0 -20 -3 -24 -11 -16 -7 7 -9 19 -6 27 10 24 17 19 17 -11z m-2291
-145 c9 -26 9 -35 -4 -47 -15 -15 -18 -14 -36 8 -31 37 -23 67 18 70 6 1 16
-13 22 -31z m2095 -10 c21 -30 20 -45 -5 -59 -18 -9 -25 -7 -42 10 -18 17 -19
24 -9 46 14 31 36 32 56 3z m-2235 -29 c16 -47 14 -67 -11 -80 -18 -10 -24 -8
-40 11 -10 12 -18 28 -18 35 0 7 -3 20 -6 28 -3 10 4 18 23 25 40 15 40 15 52
-19z m880 -9 c15 -12 55 -25 90 -30 79 -11 91 -21 91 -76 0 -49 2 -50 112 -89
25 -9 65 -30 89 -48 71 -54 93 -67 116 -67 24 0 43 22 25 28 -7 2 -12 8 -12
13 0 5 12 3 28 -4 15 -8 47 -17 71 -20 46 -6 78 -28 67 -46 -5 -8 -13 -8 -27
0 -15 7 -24 7 -34 -1 -10 -8 -17 -6 -29 12 -16 22 -16 22 -13 -20 3 -24 9 -48
16 -55 22 -22 10 -29 -41 -23 l-53 6 50 -25 c55 -27 77 -30 106 -15 29 16 149
-22 189 -60 37 -35 32 -50 -16 -50 -47 0 -74 -29 -74 -81 0 -39 0 -40 -22 -25
-12 9 -37 16 -55 16 -33 0 -51 -14 -33 -25 8 -5 8 -11 0 -20 -7 -8 -9 -19 -6
-24 9 -14 -26 -31 -63 -31 -23 0 -31 5 -31 18 0 20 -24 45 -52 55 -9 3 -18 16
-20 29 -2 17 -11 24 -30 26 -18 2 -25 8 -22 17 7 17 -52 105 -69 105 -7 0 -23
-9 -36 -19 -22 -17 -23 -21 -12 -54 15 -46 9 -57 -34 -57 -41 0 -53 -15 -31
-39 9 -10 16 -26 16 -35 0 -24 54 -73 89 -81 23 -5 27 -10 23 -30 -3 -18 0
-25 11 -25 9 0 19 5 22 10 15 24 145 3 145 -23 0 -6 16 -7 40 -3 23 3 40 2 40
-3 0 -5 7 -17 16 -25 20 -21 -3 -21 -30 -1 -22 17 -40 20 -32 6 3 -5 -4 -11
-15 -14 -17 -5 -20 -11 -16 -33 l5 -26 -25 26 c-29 32 -86 35 -120 7 -25 -21
-31 -51 -10 -51 6 0 24 -23 38 -50 15 -28 24 -50 20 -50 -14 0 -259 127 -307
160 -139 93 -213 156 -227 192 -9 23 -30 46 -56 62 -22 15 -41 30 -41 34 0 4
-26 37 -58 74 -32 37 -70 91 -84 120 -52 107 -103 213 -103 218 0 3 -8 16 -17
30 -9 14 -19 35 -22 47 -6 20 -2 22 66 33 94 16 238 62 308 99 30 16 56 30 58
30 2 1 15 -8 31 -19z m2648 -91 c12 -4 27 -17 32 -28 8 -13 26 -22 56 -27 52
-7 55 -17 24 -81 -13 -27 -27 -43 -39 -43 -10 0 -30 -16 -45 -36 -23 -30 -29
-34 -37 -21 -16 30 2 63 45 83 59 27 62 49 7 41 -33 -4 -52 -14 -76 -41 -40
-43 -45 -44 -38 -8 4 19 1 34 -9 44 -8 8 -17 25 -19 38 -7 48 -44 26 -62 -37
-6 -18 -2 -22 19 -25 24 -3 24 -5 11 -23 -8 -11 -48 -36 -90 -54 l-76 -33 -40
27 c-25 18 -40 36 -40 49 0 11 -9 35 -20 51 -11 17 -20 44 -20 61 0 43 -19 62
-65 67 -32 3 -29 4 17 5 48 2 59 -1 68 -18 6 -11 21 -20 33 -20 12 0 31 -9 41
-21 13 -16 25 -20 48 -15 17 3 41 0 57 -9 25 -12 31 -12 50 2 12 8 26 26 31
39 6 14 18 27 27 30 10 3 25 9 33 14 15 8 32 6 77 -11z m423 -99 c0 -23 -25
-60 -40 -60 -33 0 -41 23 -20 58 17 28 23 31 40 22 11 -6 20 -15 20 -20z m148
-48 c4 -27 -16 -82 -29 -82 -18 0 -59 24 -59 34 0 6 9 26 20 44 25 40 63 42
68 4z m-548 7 c-14 -5 -31 -17 -37 -26 -7 -9 -13 -12 -13 -5 0 14 40 42 60 41
8 0 4 -5 -10 -10z m-208 -130 c-30 -17 -57 -28 -60 -25 -9 10 13 26 54 41 62
22 63 17 6 -16z m-427 -143 l30 -24 -30 -32 c-16 -18 -51 -43 -77 -56 -26 -13
-49 -28 -53 -34 -3 -6 -20 -17 -36 -26 -29 -15 -30 -15 -20 5 6 11 29 35 51
52 21 17 40 41 42 52 2 16 15 28 46 44 2 1 -1 11 -8 22 -9 18 -8 21 7 21 10 0
32 -11 48 -24z m-162 -17 c12 -7 23 -13 25 -14 1 -1 -5 -16 -13 -33 -16 -31
-31 -33 -62 -9 -10 7 -9 16 4 38 20 33 18 32 46 18z m-1493 -46 c17 -30 20
-41 11 -55 -10 -16 -7 -18 24 -18 31 0 36 -4 41 -28 4 -19 15 -32 35 -39 16
-6 29 -18 29 -27 0 -10 -6 -13 -17 -9 -13 5 -15 2 -11 -15 4 -12 2 -22 -3 -22
-12 0 -11 -27 1 -32 5 -1 -12 -3 -39 -4 -27 0 -57 -7 -67 -15 -16 -13 -16 -12
-6 8 11 21 8 24 -45 50 -50 24 -59 33 -65 63 -3 19 -11 36 -17 38 -6 2 -11 8
-11 13 0 4 7 6 15 3 8 -4 27 -3 41 0 26 7 26 9 20 61 -6 53 -2 62 31 64 6 1
21 -16 33 -36z m774 -125 c7 -13 16 -35 20 -49 7 -31 102 -94 159 -104 23 -5
46 -18 62 -37 29 -34 30 -41 10 -58 -8 -7 -15 -20 -15 -29 0 -29 -22 -41 -78
-41 l-53 0 17 -29 c9 -16 34 -40 55 -52 21 -13 41 -31 44 -41 10 -29 -6 -69
-32 -79 -52 -19 -461 -1 -505 22 -11 6 -18 21 -18 39 0 50 -17 79 -52 89 -25
7 -27 9 -11 10 15 1 21 6 17 15 -3 8 -1 17 5 21 19 11 12 25 -14 25 -33 0 -86
22 -104 43 -12 15 -10 17 19 17 29 0 32 2 28 25 -4 17 -1 25 8 25 17 0 18 32
2 48 -7 7 -22 12 -35 12 -29 0 -29 2 2 50 19 30 32 40 51 40 25 0 26 -1 19
-50 -5 -39 -4 -50 7 -50 19 0 38 21 38 42 0 22 12 23 50 3 38 -19 38 -43 3
-51 -38 -9 -67 -35 -51 -45 9 -6 4 -14 -15 -29 -35 -28 -25 -47 46 -95 64 -43
77 -44 77 -5 0 26 4 30 28 30 15 0 33 5 40 12 15 15 16 98 1 98 -18 0 -3 100
19 130 10 14 33 30 50 36 18 5 37 15 44 22 19 19 46 14 62 -10z m-604 -98 c21
0 27 -15 10 -25 -20 -12 -46 5 -48 32 -1 24 0 25 9 11 5 -10 19 -18 29 -18z
m165 -61 c12 -19 -5 -23 -22 -6 -16 16 -16 17 -1 17 9 0 20 -5 23 -11z m-94
-74 c33 -21 30 -85 -4 -85 -8 0 -7 3 2 9 21 14 6 39 -26 43 -37 4 -47 44 -11
43 13 0 30 -5 39 -10z m-77 -47 c46 -35 52 -44 40 -55 -8 -8 -19 -11 -25 -7
-8 4 -7 9 2 15 16 10 -10 35 -71 69 -22 12 -28 19 -18 20 10 0 42 -19 72 -42z
m-127 5 c-3 -3 -11 -2 -17 2 -9 6 -9 10 1 16 14 8 27 -7 16 -18z m73 -3 c44
-22 55 -36 40 -45 -8 -5 -7 -11 1 -21 9 -11 7 -14 -13 -14 -17 0 -35 13 -56
39 -51 63 -41 76 28 41z m125 -10 c8 -13 -15 -13 -35 0 -12 8 -11 10 7 10 12
0 25 -4 28 -10z m73 -22 c17 -17 15 -28 -6 -28 -9 0 -22 -10 -27 -22 -13 -31
-59 -32 -63 -2 -2 16 4 23 23 28 14 4 28 13 31 21 7 18 26 19 42 3z m62 -9 c0
-4 -4 -11 -10 -14 -23 -14 -10 -44 23 -53 24 -6 33 -14 35 -34 3 -29 8 -29
-110 2 l-47 12 21 29 c12 16 30 29 40 29 21 0 22 4 8 29 -8 15 -6 17 15 13 14
-2 25 -8 25 -13z m-180 -49 c0 -5 -5 -10 -11 -10 -5 0 -7 5 -4 10 3 6 8 10 11
10 2 0 4 -4 4 -10z m1300 -31 c-58 -26 -242 -81 -248 -74 -3 3 12 12 34 21
142 59 184 73 219 73 l40 0 -45 -20z"/>
<path d="M4270 1870 c-8 -5 -28 -12 -44 -15 l-29 -6 34 -21 c19 -11 53 -38 76
-59 40 -37 75 -49 87 -30 6 10 -20 34 -49 46 -17 7 -15 9 15 16 43 9 63 34 49
60 -11 21 -35 24 -73 9 -17 -6 -26 -6 -26 0 0 12 -20 12 -40 0z m75 -10 c25 8
40 9 47 2 18 -18 1 -41 -36 -48 -44 -8 -46 -28 -6 -49 17 -9 30 -18 30 -21 0
-10 -47 20 -87 57 -24 22 -36 39 -29 39 8 0 17 8 20 17 6 14 9 15 15 4 7 -11
15 -11 46 -1z"/>
<path d="M4960 1442 c0 -15 -5 -33 -12 -40 -9 -9 -9 -15 1 -24 10 -11 16 -9
31 10 11 14 21 18 25 12 4 -6 15 -8 25 -5 11 3 20 0 24 -10 10 -28 50 -14 54
17 4 36 -45 68 -105 68 -40 0 -43 -2 -43 -28z m105 -3 c32 -15 42 -54 15 -54
-9 0 -14 7 -12 19 3 15 -1 18 -23 14 -17 -4 -28 -1 -32 8 -3 8 -9 11 -14 8
-11 -6 -31 5 -25 14 7 12 59 6 91 -9z"/>
<path d="M2996 3456 c-14 -75 27 -179 83 -212 25 -15 29 -24 34 -81 4 -36 14
-91 23 -124 9 -33 15 -62 12 -64 -2 -3 -27 4 -54 14 -66 25 -192 51 -249 51
-44 0 -45 -1 -45 -33 0 -42 24 -75 66 -93 31 -13 34 -18 34 -59 0 -43 0 -44
-37 -47 l-38 -3 1 -135 c1 -125 12 -212 45 -332 l10 -38 71 4 c40 2 74 9 78
16 6 9 9 9 14 -1 3 -8 3 13 -1 46 -3 33 -5 70 -5 83 3 47 70 136 95 126 17 -6
57 32 57 53 0 8 5 11 10 8 17 -10 11 -54 -9 -74 -30 -30 -39 -144 -16 -188 22
-40 33 -36 15 7 -15 36 -9 155 8 172 9 9 12 -12 12 -95 0 -59 3 -107 7 -107 4
0 27 7 50 16 l43 17 0 147 c0 109 4 157 15 184 14 33 18 36 58 36 29 0 51 -7
70 -23 26 -21 28 -25 16 -50 -18 -40 2 -59 33 -30 20 19 26 20 41 8 18 -13 18
-13 -1 -19 -10 -4 -23 -15 -28 -25 -5 -10 -28 -35 -52 -56 -35 -31 -47 -36
-72 -32 -54 11 -83 -20 -41 -43 31 -16 73 -12 116 11 50 27 135 99 135 114 0
6 -52 58 -114 116 l-115 104 0 51 c-1 61 -16 108 -46 149 -26 35 -33 56 -44
125 -8 49 -7 51 25 70 47 29 89 81 109 133 20 53 17 82 -9 82 -14 0 -23 -13
-34 -45 -19 -59 -45 -94 -87 -120 -31 -19 -40 -20 -92 -11 -99 19 -143 69
-146 168 -2 51 -5 58 -23 61 -18 3 -23 -4 -28 -32z m267 -493 c8 -16 18 -39
22 -52 l7 -23 -31 18 c-25 15 -31 25 -31 51 0 40 15 43 33 6z m-211 -89 c20
-10 49 -15 87 -12 55 3 56 2 59 -25 l3 -28 -93 3 -93 3 -3 38 c-4 42 -2 43 40
21z m138 -143 c-5 -11 -10 -37 -10 -59 0 -46 -33 -97 -48 -74 -8 12 -32 -11
-99 -97 -10 -13 -12 10 -13 117 l0 132 90 0 c87 0 90 -1 80 -19z m320 -50 c0
-5 -7 -14 -15 -21 -12 -10 -15 -10 -15 2 0 8 3 18 7 21 9 10 23 9 23 -2z m66
-72 c19 -31 -149 -138 -199 -125 -39 9 -34 29 6 23 17 -2 41 0 52 5 30 15 95
80 95 95 0 16 36 17 46 2z"/>
<path d="M3161 3466 c-26 -15 -50 -51 -51 -79 -1 -54 63 -107 112 -92 60 19
88 75 63 129 -24 51 -76 69 -124 42z"/>
<path d="M5442 3340 c-60 -25 -53 -187 10 -221 28 -15 65 -3 84 26 35 53 9
170 -42 194 -14 6 -26 11 -27 10 -1 0 -12 -4 -25 -9z"/>
<path d="M5201 3234 c-26 -32 -26 -48 -2 -99 37 -80 109 -117 150 -76 42 42
16 134 -49 179 -43 29 -74 28 -99 -4z"/>
<path d="M5647 3224 c-48 -47 -48 -130 -1 -160 24 -16 27 -16 52 3 54 40 70
125 32 163 -27 27 -52 25 -83 -6z"/>
<path d="M5425 3060 c-54 -27 -94 -80 -107 -143 -24 -114 20 -207 99 -207 49
0 57 6 77 55 34 80 75 102 136 70 37 -19 74 -11 100 22 29 37 25 65 -19 121
-74 93 -194 128 -286 82z"/>
<path d="M5406 2611 c-18 -34 -21 -71 -5 -71 5 0 8 4 4 10 -3 5 1 26 10 46 19
46 12 57 -9 15z"/>
<path d="M4650 2415 l0 -185 50 0 50 0 0 148 0 148 -50 37 -50 37 0 -185z"/>
<path d="M2180 2198 c-57 -16 -106 -31 -108 -33 -11 -11 23 -109 48 -135 33
-35 81 -40 137 -13 54 25 68 67 47 146 -9 34 -17 63 -17 63 -1 1 -49 -11 -107
-28z m90 -78 c0 -31 -8 -44 -37 -59 -48 -25 -91 -7 -107 46 -7 23 -12 21 119
57 14 4 25 -15 25 -44z"/>
<path d="M2800 1890 c-91 -49 -169 -91 -173 -93 -12 -4 35 -98 48 -95 28 8
345 182 345 190 0 15 -40 88 -48 88 -4 -1 -81 -41 -172 -90z"/>
<path d="M2203 1931 c-36 -23 -47 -49 -38 -91 7 -31 51 -74 66 -64 12 7 11 44
-1 44 -5 0 -14 10 -21 21 -9 17 -8 25 4 36 14 14 17 10 33 -36 10 -28 24 -51
30 -51 6 0 23 9 38 21 35 28 36 80 1 114 -29 30 -68 32 -112 6z m93 -46 c4 -8
3 -23 -1 -32 -6 -16 -8 -15 -20 7 -8 14 -14 28 -15 33 0 14 31 7 36 -8z"/>
<path d="M7026 1934 c-9 -23 -1 -31 63 -63 74 -38 88 -54 73 -86 -16 -34 -45
-32 -122 9 -63 34 -64 34 -78 15 -8 -11 -12 -22 -11 -23 20 -18 155 -76 177
-76 33 0 67 31 83 79 16 45 -8 76 -97 123 -80 43 -80 43 -88 22z"/>
<path d="M6269 1747 c-14 -18 -28 -37 -32 -44 -4 -7 27 -37 80 -79 110 -86
133 -108 133 -132 0 -26 -37 -62 -63 -62 -13 0 -66 36 -127 84 l-105 85 -32
-37 c-18 -20 -32 -40 -33 -44 0 -10 206 -171 238 -185 79 -35 165 7 209 103
45 99 23 138 -163 281 l-81 61 -24 -31z"/>
<path d="M2268 1712 c-97 -45 -106 -54 -89 -80 7 -12 14 -11 41 3 17 9 33 15
34 13 1 -2 6 -16 12 -33 5 -17 22 -36 37 -43 23 -11 33 -10 71 7 67 29 84 74
44 114 -13 13 -23 32 -23 42 0 31 -23 27 -127 -23z m117 -52 c0 -17 -8 -29
-27 -37 -47 -23 -79 6 -51 46 11 16 23 21 46 19 27 -2 32 -7 32 -28z"/>
<path d="M2990 1655 c-88 -52 -130 -112 -130 -186 0 -87 76 -178 160 -194 75
-13 190 56 230 141 77 158 -108 327 -260 239z m125 -85 c28 -11 56 -64 47 -89
-14 -42 -90 -101 -130 -101 -27 0 -72 48 -72 76 0 27 42 79 85 105 35 22 36
22 70 9z"/>
<path d="M6860 1641 c-17 -33 -22 -25 127 -210 2 -3 11 2 19 11 15 14 14 18
-1 42 -16 24 -16 27 4 59 17 28 25 33 50 29 22 -3 32 1 40 16 10 19 4 22 -102
46 -61 14 -115 26 -119 26 -4 0 -12 -9 -18 -19z m112 -50 c16 -6 16 -7 0 -27
l-17 -21 -29 34 -29 34 29 -7 c16 -4 37 -10 46 -13z"/>
<path d="M2447 1536 c-3 -9 4 -21 19 -30 13 -9 24 -23 24 -31 0 -22 -13 -18
-39 9 -29 31 -55 37 -80 19 -27 -19 -27 -57 2 -85 12 -13 22 -25 22 -28 1 -3
4 -15 9 -27 9 -28 26 -30 33 -3 3 11 25 31 48 45 24 14 46 34 50 45 15 48 -71
132 -88 86z m-9 -78 c19 -19 14 -28 -12 -28 -27 0 -41 14 -31 30 8 14 28 13
43 -2z"/>
<path d="M6700 1405 c-15 -18 -20 -13 87 -93 l82 -62 45 59 c25 33 46 62 46
64 0 3 -8 8 -17 11 -12 5 -26 -4 -48 -30 l-31 -37 -71 52 c-39 28 -73 51 -76
51 -2 0 -10 -7 -17 -15z"/>
<path d="M3388 1351 l-28 -39 41 -26 c26 -18 39 -33 35 -42 -3 -8 -42 -64 -88
-126 l-82 -111 40 -33 c21 -19 41 -34 44 -33 3 0 34 40 69 90 36 49 77 104 91
121 l27 32 36 -27 c20 -15 40 -27 44 -27 14 0 55 60 50 73 -4 11 -239 187
-248 187 -2 0 -16 -18 -31 -39z"/>
<path d="M2555 1358 c-16 -12 -47 -34 -67 -48 -33 -23 -36 -29 -25 -44 12 -16
17 -15 65 15 50 31 53 31 72 14 21 -19 54 -14 48 8 -3 6 -15 17 -27 23 -15 8
-18 13 -9 16 11 4 11 8 -1 21 -17 21 -19 21 -56 -5z"/>
<path d="M5818 1287 l-36 -32 123 -155 c68 -85 126 -154 130 -154 17 4 205
158 205 168 -1 12 -45 66 -55 66 -4 0 -31 -20 -62 -45 -30 -25 -58 -45 -63
-45 -4 0 -49 52 -99 115 -50 63 -94 115 -98 115 -5 -1 -25 -15 -45 -33z"/>
<path d="M6594 1272 c-39 -31 -57 -69 -50 -105 7 -39 58 -92 103 -107 41 -15
91 9 106 50 6 16 19 31 29 33 30 8 21 33 -28 72 l-45 38 -29 -34 c-34 -40 -35
-43 -16 -59 12 -9 17 -8 28 9 9 15 15 17 25 9 19 -15 16 -35 -8 -59 -24 -24
-51 -19 -91 19 -43 39 -32 102 17 102 14 0 25 4 25 9 0 5 3 16 6 25 9 22 -44
21 -72 -2z"/>
<path d="M2661 1256 c-7 -8 -10 -19 -7 -24 3 -5 -15 -25 -39 -46 -50 -41 -55
-61 -25 -94 33 -35 62 -22 39 17 -11 16 -8 23 17 45 34 30 47 32 64 11 9 -11
16 -12 26 -4 11 9 11 15 -2 34 -13 20 -13 23 2 29 15 6 15 8 -1 26 -12 14 -22
17 -30 10 -7 -6 -15 -6 -22 1 -7 7 -14 5 -22 -5z"/>
<path d="M3771 1098 c-10 -24 -46 -105 -81 -182 -34 -76 -58 -142 -53 -146 9
-9 233 -110 243 -110 7 0 40 65 40 79 0 4 -34 22 -75 40 -77 34 -85 44 -61 76
13 18 16 17 78 -12 l65 -31 17 34 c9 19 16 40 16 47 -1 7 -29 26 -64 42 -58
27 -63 32 -55 52 l8 23 77 -35 c42 -19 79 -33 82 -30 3 3 13 22 22 44 l18 38
-97 43 c-53 23 -111 49 -129 56 l-33 14 -18 -42z"/>
<path d="M5542 1123 c-57 -20 -108 -72 -122 -124 -21 -76 21 -185 92 -242 108
-87 288 -5 288 131 0 39 -1 40 -39 44 -53 5 -61 1 -61 -31 0 -60 -66 -99 -114
-67 -28 18 -66 92 -66 127 0 26 31 61 63 72 10 4 31 0 46 -7 31 -17 38 -13 69
30 20 30 21 32 4 47 -42 38 -92 44 -160 20z"/>
<path d="M2720 1069 c-61 -55 -64 -59 -48 -75 16 -16 20 -15 63 25 38 35 48
40 65 31 11 -6 20 -14 20 -18 0 -3 -20 -27 -46 -53 -39 -40 -43 -47 -30 -58
13 -11 20 -9 44 8 16 11 35 27 42 36 17 20 49 19 57 -2 5 -12 -8 -29 -43 -59
-47 -41 -48 -44 -31 -61 16 -16 20 -15 72 37 30 30 55 62 55 70 0 17 -40 60
-56 60 -5 0 -16 15 -24 33 -9 19 -24 33 -37 35 -13 2 -20 8 -17 16 3 7 -1 18
-8 23 -10 8 -29 -4 -78 -48z"/>
<path d="M4234 946 c-88 -39 -142 -192 -100 -289 53 -124 242 -149 313 -41 17
26 16 27 -15 55 -38 34 -58 37 -67 10 -16 -50 -118 -39 -131 14 -10 39 2 105
24 134 34 46 115 37 128 -14 7 -29 21 -31 70 -10 32 13 35 18 29 42 -21 85
-158 139 -251 99z"/>
<path d="M6361 946 c-9 -11 -7 -26 9 -67 11 -30 20 -55 20 -56 0 -2 -22 11
-49 27 -55 34 -64 36 -80 16 -10 -11 3 -23 69 -60 58 -34 80 -52 80 -67 0 -11
-7 -22 -15 -25 -17 -7 -18 -13 -6 -33 7 -10 13 -11 30 -1 43 22 44 52 5 170
-19 61 -39 110 -43 110 -5 0 -14 -6 -20 -14z"/>
<path d="M6522 931 c-21 -13 -10 -46 16 -49 16 -3 22 -10 22 -28 0 -15 6 -24
15 -24 28 0 13 81 -19 102 -14 10 -18 10 -34 -1z"/>
<path d="M4876 860 l7 -70 -29 0 c-16 0 -46 -3 -66 -6 l-38 -7 0 40 c0 22 -3
55 -6 72 -6 29 -10 31 -48 31 -22 0 -46 -4 -52 -8 -7 -5 -6 -63 2 -192 7 -102
13 -191 13 -198 1 -9 16 -12 54 -10 l52 3 -4 79 c-4 91 -1 96 75 96 l52 0 3
-79 c2 -44 6 -81 9 -83 3 -2 28 -2 55 0 l50 4 -12 181 c-6 100 -12 190 -12
200 -1 14 -11 17 -56 17 l-55 0 6 -70z"/>
<path d="M2984 870 c-32 -13 -64 -59 -64 -92 0 -38 50 -91 82 -86 29 4 32 40
4 44 -27 4 -50 30 -42 49 5 14 12 11 48 -19 44 -38 56 -37 79 7 16 28 -7 73
-46 91 -18 9 -35 16 -37 15 -1 0 -13 -4 -24 -9z m64 -69 c4 -23 4 -23 -22 -5
-32 24 -33 36 -3 32 14 -2 23 -11 25 -27z"/>
<path d="M6187 842 c-11 -2 -16 -10 -13 -17 2 -7 -6 -21 -19 -29 -36 -24 -47
-50 -34 -80 7 -14 20 -28 31 -31 10 -4 18 -15 18 -25 0 -11 6 -23 13 -27 6 -4
12 -19 12 -32 0 -39 29 -49 72 -26 54 30 79 68 65 99 -16 36 -46 41 -88 16
-44 -28 -54 -21 -20 13 31 31 33 60 7 84 -11 10 -21 27 -23 38 -2 14 -9 19
-21 17z m13 -87 c13 -16 6 -35 -15 -35 -18 0 -28 17 -21 35 7 19 20 19 36 0z
m90 -110 c0 -21 -48 -51 -61 -38 -7 7 -2 17 17 32 31 25 44 27 44 6z"/>
<path d="M3117 694 c-38 -52 -46 -69 -36 -80 17 -21 23 -18 58 31 23 32 39 45
56 45 39 0 39 -19 -1 -77 -31 -44 -35 -56 -23 -64 22 -14 31 -7 73 54 35 50
38 59 28 82 -8 16 -23 28 -42 31 -16 4 -30 12 -30 19 0 10 -20 25 -33 25 -1 0
-24 -30 -50 -66z"/>
<path d="M5957 670 c-44 -35 -43 -94 3 -140 29 -29 84 -27 115 5 76 75 -33
201 -118 135z m75 -37 c22 -25 27 -45 16 -65 -12 -25 -44 -22 -62 4 -21 29
-20 55 2 67 23 14 27 14 44 -6z"/>
<path d="M3366 645 c-3 -8 -12 -12 -20 -9 -18 7 -32 -14 -18 -28 8 -8 6 -19
-8 -38 -37 -52 -41 -76 -19 -104 24 -31 59 -35 59 -7 0 10 -7 22 -15 25 -14 5
-14 9 -1 33 29 54 32 56 54 44 15 -8 23 -7 31 3 9 11 7 18 -10 30 -18 12 -20
18 -10 30 10 12 9 17 -8 25 -26 14 -28 14 -35 -4z"/>
<path d="M5777 649 c-16 -9 -13 -19 34 -110 46 -90 53 -99 79 -99 16 0 31 4
34 9 9 14 -4 40 -18 35 -7 -3 -29 32 -56 86 -24 49 -47 90 -50 90 -3 0 -13 -5
-23 -11z"/>
<path d="M5629 501 c-33 -33 -35 -47 -15 -96 25 -60 84 -73 135 -29 35 29 39
59 16 104 -30 58 -90 67 -136 21z m85 -33 c23 -33 20 -65 -6 -74 -39 -12 -76
54 -46 84 18 18 35 15 52 -10z"/>
<path d="M3561 496 c-52 -29 -68 -107 -28 -144 52 -48 115 -34 143 33 19 46 3
88 -41 109 -39 19 -43 19 -74 2z m74 -55 c3 -10 0 -31 -7 -45 -9 -21 -18 -26
-37 -24 -30 3 -39 34 -21 67 14 27 56 28 65 2z"/>
<path d="M3778 465 c-6 -14 -18 -25 -26 -25 -10 0 -12 -7 -8 -26 4 -14 -1 -49
-11 -80 -15 -48 -15 -57 -3 -65 25 -15 28 -11 50 56 20 60 23 63 45 55 18 -7
25 -5 29 7 6 15 -8 32 -26 33 -5 0 -8 7 -8 15 0 18 21 20 37 4 8 -8 14 -6 22
10 9 17 8 22 -8 31 -37 19 -80 12 -93 -15z"/>
<path d="M5462 450 c-12 -5 -25 -17 -29 -26 -4 -11 -8 -12 -13 -4 -4 7 -16 9
-28 6 -20 -7 -20 -8 7 -89 23 -68 32 -81 47 -79 28 5 28 6 10 58 -21 63 -20
81 5 89 27 9 33 2 54 -62 16 -52 39 -69 51 -38 8 20 -24 113 -47 136 -21 21
-24 22 -57 9z"/>
<path d="M5152 432 c-10 -7 -7 -32 14 -120 25 -105 28 -112 52 -112 20 0 23 4
18 23 -17 61 -18 103 -2 116 24 20 41 1 55 -64 12 -55 17 -60 44 -49 13 5 13
13 1 67 -22 92 -58 119 -111 82 -20 -14 -22 -13 -28 25 -7 39 -18 48 -43 32z"/>
<path d="M4015 408 c-16 -68 -35 -172 -35 -188 0 -28 120 -49 154 -27 31 21
41 63 22 92 -13 20 -13 25 -1 35 20 17 19 54 -2 72 -14 12 -101 38 -128 38 -3
0 -7 -10 -10 -22z m89 -34 c19 -7 22 -43 4 -45 -18 -2 -52 2 -56 6 -2 2 -1 13
3 24 6 21 21 26 49 15z m10 -107 c15 -25 -13 -45 -54 -39 -27 4 -31 8 -26 26
3 11 6 26 6 32 0 18 61 2 74 -19z"/>
<path d="M4252 378 c2 -15 10 -23 23 -23 30 0 27 39 -3 43 -20 3 -23 0 -20
-20z"/>
<path d="M4593 330 c-3 -11 -9 -20 -14 -20 -5 0 -9 -9 -9 -20 0 -11 5 -20 10
-20 6 0 10 -18 10 -39 0 -76 30 -112 80 -96 30 10 26 45 -5 45 -23 0 -25 4
-25 45 0 41 2 45 25 45 18 0 25 5 25 20 0 15 -7 20 -25 20 -18 0 -25 5 -25 20
0 14 -7 20 -21 20 -12 0 -23 -8 -26 -20z"/>
<path d="M5020 343 c-59 -22 -79 -96 -39 -147 16 -21 29 -26 63 -26 47 0 83
27 73 55 -8 19 -33 20 -41 0 -7 -20 -52 -19 -60 1 -19 50 9 93 47 72 13 -6 23
-6 34 3 13 12 13 15 -7 31 -22 18 -42 21 -70 11z"/>
<path d="M4236 273 c-4 -32 -9 -70 -12 -85 -5 -25 -2 -28 19 -28 27 0 26 -3
43 123 6 45 5 47 -19 47 -23 0 -25 -5 -31 -57z"/>
<path d="M4375 295 c-56 -55 -18 -155 60 -155 50 0 85 36 85 87 -1 42 -13 63
-47 81 -35 19 -72 14 -98 -13z m83 -27 c14 -14 16 -57 3 -76 -4 -8 -19 -12
-32 -10 -19 2 -25 10 -27 36 -5 50 27 79 56 50z"/>
<path d="M4773 296 c-39 -33 -38 -99 1 -133 36 -31 86 -30 115 1 28 30 12 43
-29 26 -34 -14 -60 -8 -60 14 0 11 14 16 53 18 51 3 52 3 49 33 -7 63 -77 85
-129 41z m85 -33 c2 -9 -8 -13 -32 -13 -28 0 -34 3 -29 16 7 18 54 16 61 -3z"/>
</g>
</svg>
